<svg width="432" height="37" viewBox="0 0 432 37" fill="none" xmlns="http://www.w3.org/2000/svg">
<path d="M14.8 35.88C24.24 35.88 30.28 32.04 30.28 25.8C30.28 21.4 27.52 18.6 23.84 17.6V17.08C26.8 15.76 29.04 13.48 29.04 9.72C29.04 4.32 24.24 0.519999 15.08 0.519999C5.96 0.519999 0.88 4.32 0.92 12.08H9C9 9 11.28 7.68 15 7.68C18.48 7.68 20.88 8.88 20.88 11.16C20.88 12.8 19.68 15.12 13.96 15.12H12.48V20.44H13.96C19.76 20.44 21.36 22.88 21.36 24.8C21.36 27.32 18.72 28.72 14.6 28.72C10.92 28.72 8.48 27.64 8.32 24.44H0.2C0.16 32.24 4.92 35.88 14.8 35.88ZM49.0044 1.4H33.0844V35H49.0044C62.2844 35 67.1644 27.76 67.1644 18.2C67.1644 8.6 62.2844 1.4 49.0044 1.4ZM49.0044 27.4H42.1244L42.1644 8.96H49.0044C54.8044 8.96 58.1244 12.08 58.1244 18.2C58.1244 24.28 54.8044 27.4 49.0044 27.4ZM98.1537 36.12C105.874 36.12 113.634 32.72 115.114 22.28H106.514C105.234 26.44 102.154 28.32 98.1537 28.32C92.7138 28.32 88.5538 24.2 88.5538 18.2C88.5538 12.2 92.7138 8.08 98.1537 8.08C102.154 8.08 105.234 9.92 106.514 14.04H115.114C113.634 3.64 105.834 0.279999 98.1537 0.279999C87.1538 0.279999 79.5938 7.56 79.5938 18.2C79.5938 28.8 87.1538 36.12 98.1537 36.12ZM135.961 36.12C147.121 36.12 154.601 28.8 154.601 18.2C154.601 7.56 147.121 0.279999 135.961 0.279999C124.761 0.279999 117.281 7.56 117.281 18.2C117.281 28.8 124.761 36.12 135.961 36.12ZM135.961 28.32C130.481 28.32 126.241 24.36 126.241 18.2C126.241 12 130.481 8.08 135.961 8.08C141.401 8.08 145.681 12 145.681 18.2C145.681 24.36 141.401 28.32 135.961 28.32ZM157.209 35H185.129V27.44H166.249V1.4H157.209V35ZM188.147 35H216.067V27.44H197.187V1.4H188.147V35ZM219.084 35H248.044V27.68H228.124V21.32H247.324V15.04H228.124V8.72H248.044V1.4H219.084V35ZM268.779 36.12C276.499 36.12 284.259 32.72 285.739 22.28H277.139C275.859 26.44 272.779 28.32 268.779 28.32C263.339 28.32 259.179 24.2 259.179 18.2C259.179 12.2 263.339 8.08 268.779 8.08C272.779 8.08 275.859 9.92 277.139 14.04H285.739C284.259 3.64 276.459 0.279999 268.779 0.279999C257.779 0.279999 250.219 7.56 250.219 18.2C250.219 28.8 257.779 36.12 268.779 36.12ZM320.78 1.4H286.9V8.92H299.34V35H308.34V8.92H320.78V1.4ZM323.803 35H332.843V1.4H323.803V35ZM363.198 17.44V16.92C365.918 15.64 367.757 13.76 367.757 10.12C367.757 5.52 364.797 1.4 354.998 1.4H336.038V35H354.798C364.877 35 368.758 31 368.758 25.52C368.758 21.56 366.718 19 363.198 17.44ZM354.238 8.36C357.518 8.36 359.117 9.68 359.117 11.76C359.117 13.76 357.518 15.04 354.238 15.04H345.078V8.36H354.238ZM354.598 28H345.078V20.4H354.598C357.918 20.4 359.638 21.88 359.638 24.08C359.638 26.32 357.918 28 354.598 28ZM371.569 35H399.489V27.44H380.609V1.4H371.569V35ZM402.506 35H431.466V27.68H411.546V21.32H430.746V15.04H411.546V8.72H431.466V1.4H402.506V35Z" fill="url(#paint0_linear)"/>
<defs>
<linearGradient id="paint0_linear" x1="216.5" y1="12" x2="473.753" y2="12" gradientUnits="userSpaceOnUse">
<stop stop-color="#1A73FA"/>
<stop offset="1" stop-color="#1A73FA" stop-opacity="0"/>
</linearGradient>
</defs>
</svg>
