<svg width="254" height="34" viewBox="0 0 254 34" fill="none" xmlns="http://www.w3.org/2000/svg">
<path d="M29.32 34H38.64L25.84 0.400001H13.2L0.4 34H9.72L11.6 28.76H27.44L29.32 34ZM14 22L18.72 8.88H20.36L25.04 22H14ZM73.8069 34L67.4469 22.6C70.6869 20.68 72.8869 17.32 72.8869 12.68C72.8869 4.52 67.9269 0.400001 58.8469 0.400001H40.6469V34H49.6869V24.44H59.7269L64.8869 34H73.8069ZM49.6869 7.92H58.2869C61.9269 7.92 63.8869 9.6 63.8869 12.76C63.8869 15.92 61.9269 17.6 58.2869 17.6H49.6869V7.92ZM86.4906 34H95.5306V21.4H114.371V14.72H95.5306V7.92H115.411V0.400001H86.4906V34ZM118.6 34H127.64V0.400001H118.6V34ZM130.834 34H158.754V26.44H139.874V0.400001H130.834V34ZM185.046 0.400001H151.166V7.92H163.606V34H172.606V7.92H185.046V0.400001ZM188.069 34H217.029V26.68H197.109V20.32H216.309V14.04H197.109V7.72H217.029V0.400001H188.069V34ZM253.385 34L247.025 22.6C250.265 20.68 252.465 17.32 252.465 12.68C252.465 4.52 247.505 0.400001 238.425 0.400001H220.225V34H229.265V24.44H239.305L244.465 34H253.385ZM229.265 7.92H237.865C241.505 7.92 243.465 9.6 243.465 12.76C243.465 15.92 241.505 17.6 237.865 17.6H229.265V7.92Z" fill="url(#paint0_linear)"/>
<defs>
<linearGradient id="paint0_linear" x1="223" y1="-13" x2="64.9845" y2="123.992" gradientUnits="userSpaceOnUse">
<stop offset="0.717895" stop-color="#1A73FA"/>
<stop offset="1" stop-color="#1A73FA" stop-opacity="0"/>
</linearGradient>
</defs>
</svg>
