<svg width="40" height="40" viewBox="0 0 40 40" fill="none" xmlns="http://www.w3.org/2000/svg">
<path d="M7.93934 29.1525C7.35355 29.7383 7.35355 30.688 7.93934 31.2738C8.52513 31.8596 9.47487 31.8596 10.0607 31.2738L7.93934 29.1525ZM31.7132 8.99993C31.7132 8.1715 31.0416 7.49993 30.2132 7.49993L16.7132 7.49993C15.8848 7.49993 15.2132 8.1715 15.2132 8.99993C15.2132 9.82836 15.8848 10.4999 16.7132 10.4999H28.7132V22.4999C28.7132 23.3284 29.3848 23.9999 30.2132 23.9999C31.0416 23.9999 31.7132 23.3284 31.7132 22.4999L31.7132 8.99993ZM10.0607 31.2738L31.2739 10.0606L29.1525 7.93927L7.93934 29.1525L10.0607 31.2738Z" fill="black"/>
</svg>
