<svg width="26" height="26" viewBox="0 0 26 26" fill="none" xmlns="http://www.w3.org/2000/svg">
<path d="M5.29289 19.2929C4.90237 19.6834 4.90237 20.3166 5.29289 20.7071C5.68342 21.0976 6.31658 21.0976 6.70711 20.7071L5.29289 19.2929ZM21 6C21 5.44771 20.5523 5 20 5L11 5C10.4477 5 10 5.44772 10 6C10 6.55228 10.4477 7 11 7L19 7L19 15C19 15.5523 19.4477 16 20 16C20.5523 16 21 15.5523 21 15L21 6ZM6.70711 20.7071L20.7071 6.70711L19.2929 5.29289L5.29289 19.2929L6.70711 20.7071Z" fill="white"/>
</svg>
