<svg width="21" height="21" viewBox="0 0 21 21" fill="none" xmlns="http://www.w3.org/2000/svg">
<path d="M4.46967 15.0762C4.17678 15.3691 4.17678 15.844 4.46967 16.1369C4.76256 16.4298 5.23744 16.4298 5.53033 16.1369L4.46967 15.0762ZM16.3566 4.99997C16.3566 4.58575 16.0208 4.24997 15.6066 4.24997L8.8566 4.24997C8.44239 4.24997 8.1066 4.58575 8.1066 4.99997C8.1066 5.41418 8.44239 5.74997 8.8566 5.74997H14.8566V11.75C14.8566 12.1642 15.1924 12.5 15.6066 12.5C16.0208 12.5 16.3566 12.1642 16.3566 11.75L16.3566 4.99997ZM5.53033 16.1369L16.1369 5.5303L15.0763 4.46964L4.46967 15.0762L5.53033 16.1369Z" fill="black"/>
</svg>
