<svg width="304" height="49" viewBox="0 0 304 49" fill="none" xmlns="http://www.w3.org/2000/svg">
<path d="M21.36 2.2H0.133333V47H21.36C39.0667 47 45.5733 37.3467 45.5733 24.6C45.5733 11.8 39.0667 2.2 21.36 2.2ZM21.36 36.8667H12.1867L12.24 12.28H21.36C29.0933 12.28 33.52 16.44 33.52 24.6C33.52 32.7067 29.0933 36.8667 21.36 36.8667ZM49.3208 47H61.3742V2.2H49.3208V47ZM85.9533 48.4933C100.353 48.5467 107.767 43.5333 107.767 34.3067C107.767 23.1067 96.6733 22.04 88.0333 20.4933L83.18 19.64C79.02 18.9467 77.3133 17.2933 77.3133 15C77.3133 12.0667 80.0867 10.1467 85.7933 10.1467C92.14 10.1467 95.0733 12.6 95.7133 16.28H106.487C106.487 4.6 98.1133 0.706665 86.0067 0.706665C72.94 0.706665 65.74 5.88 65.74 14.4667C65.74 24.76 74.7533 26.6267 83.2867 28.0667L88.8867 29.0267C93.9 29.8267 95.82 31.3733 95.82 33.9333C95.82 36.9733 92.46 39.0533 85.9533 39C78.9133 39 75.7133 36.5467 75.4467 32.76H64.5667C64.4067 43.64 71.66 48.4933 85.9533 48.4933ZM135.08 48.4933C145.373 48.4933 155.72 43.96 157.693 30.04H146.227C144.52 35.5867 140.413 38.0933 135.08 38.0933C127.827 38.0933 122.28 32.6 122.28 24.6C122.28 16.6 127.827 11.1067 135.08 11.1067C140.413 11.1067 144.52 13.56 146.227 19.0533H157.693C155.72 5.18666 145.32 0.706665 135.08 0.706665C120.413 0.706665 110.333 10.4133 110.333 24.6C110.333 38.7333 120.413 48.4933 135.08 48.4933ZM161.133 47H173.187V2.2H161.133V47ZM177.446 47H189.499V35.7467H201.606C213.606 35.7467 220.326 30.0933 220.326 18.9467C220.326 7.8 213.606 2.2 201.552 2.2H177.446V47ZM189.499 25.72V12.2267H200.699C205.339 12.2267 208.272 14.4667 208.272 18.9467C208.272 23.4267 205.339 25.72 200.646 25.72H189.499ZM224.071 47H261.298V36.92H236.124V2.2H224.071V47ZM265.321 47H303.934V37.24H277.374V28.76H302.974V20.3867H277.374V11.96H303.934V2.2H265.321V47Z" fill="url(#paint0_linear)"/>
<defs>
<linearGradient id="paint0_linear" x1="-77.1794" y1="-73.8436" x2="353.849" y2="7.83481" gradientUnits="userSpaceOnUse">
<stop offset="0.593336" stop-color="#1A73FA"/>
<stop offset="1" stop-color="#1A73FA" stop-opacity="0"/>
</linearGradient>
</defs>
</svg>
