<svg width="32" height="32" viewBox="0 0 32 32" fill="none" xmlns="http://www.w3.org/2000/svg">
<mask id="mask0" mask-type="alpha" maskUnits="userSpaceOnUse" x="0" y="0" width="32" height="32">
<circle cx="16" cy="16" r="16" fill="white"/>
</mask>
<g mask="url(#mask0)">
<path d="M12.0697 14.458C10.832 14.458 9.85484 15.558 9.85484 16.9C9.85484 18.242 10.8537 19.342 12.0697 19.342C13.3074 19.342 14.2846 18.242 14.2846 16.9C14.3063 15.558 13.3074 14.458 12.0697 14.458ZM19.9954 14.458C18.7577 14.458 17.7806 15.558 17.7806 16.9C17.7806 18.242 18.7794 19.342 19.9954 19.342C21.2331 19.342 22.2103 18.242 22.2103 16.9C22.2103 15.558 21.2331 14.458 19.9954 14.458Z" fill="white"/>
<path d="M30.5486 -4H1.45143C-1.00229 -4 -3 -1.976 -3 0.532V30.276C-3 32.784 -1.00229 34.808 1.45143 34.808H26.0754L24.9246 30.738L27.704 33.356L30.3314 35.82L35 40V0.532C35 -1.976 33.0023 -4 30.5486 -4ZM22.1669 24.732C22.1669 24.732 21.3851 23.786 20.7337 22.95C23.5783 22.136 24.664 20.332 24.664 20.332C23.7737 20.926 22.9269 21.344 22.1669 21.63C21.0811 22.092 20.0389 22.4 19.0183 22.576C16.9337 22.972 15.0229 22.862 13.3943 22.554C12.1566 22.312 11.0926 21.96 10.2023 21.608C9.70286 21.41 9.16 21.168 8.61714 20.86C8.552 20.816 8.48686 20.794 8.42171 20.75C8.37829 20.728 8.35657 20.706 8.33486 20.684C7.944 20.464 7.72686 20.31 7.72686 20.31C7.72686 20.31 8.76914 22.07 11.5269 22.906C10.8754 23.742 10.072 24.732 10.072 24.732C5.27314 24.578 3.44914 21.388 3.44914 21.388C3.44914 14.304 6.576 8.562 6.576 8.562C9.70286 6.186 12.6777 6.252 12.6777 6.252L12.8949 6.516C8.98629 7.66 7.184 9.398 7.184 9.398C7.184 9.398 7.66172 9.134 8.46514 8.76C10.7886 7.726 12.6343 7.44 13.3943 7.374C13.5246 7.352 13.6331 7.33 13.7634 7.33C15.088 7.154 16.5863 7.11 18.1497 7.286C20.2126 7.528 22.4274 8.144 24.6857 9.398C24.6857 9.398 22.9703 7.748 19.2789 6.604L19.5829 6.252C19.5829 6.252 22.5577 6.186 25.6846 8.562C25.6846 8.562 28.8114 14.304 28.8114 21.388C28.8114 21.388 26.9657 24.578 22.1669 24.732Z" fill="white"/>
</g>
</svg>
