<svg width="392" height="60" viewBox="0 0 392 60" fill="none" xmlns="http://www.w3.org/2000/svg">
<path d="M101.775 14.275C101.775 9.775 98.275 7.45 92.275 7.45C86 7.45 82.825 10.15 82.825 15.225H89.575C89.525 13.225 91.35 12.95 92.575 12.95C94.425 12.95 95.025 13.675 95.025 14.625C95.025 17.9 82.625 16.9 82.625 25.875V29H101.7V23.75H90.725C92.625 20.275 101.775 21.5 101.775 14.275ZM112.491 29.55C119.041 29.55 122.391 26.625 122.391 21.9C122.391 17.275 118.816 15.05 114.691 15.05C112.216 15.05 110.866 15.65 110.241 16.075L110.841 13.225H120.616V8H105.716L103.341 20.35H109.441C109.891 19.825 110.716 19 112.666 19C114.916 19 115.916 20.075 115.916 21.525C115.916 22.875 114.916 24.15 112.441 24.15C110.816 24.15 109.541 23.575 109.291 22.125H103.141C103.041 27.075 106.091 29.55 112.491 29.55ZM147.645 29H154.795L147.07 8H137.37L129.645 29H136.795L137.72 26.225H146.72L147.645 29ZM139.42 21.1L141.62 14.5H142.82L145.02 21.1H139.42ZM165.059 29.7C172.284 29.7 175.934 26.625 175.934 19.8V8H169.009V19.675C169.009 22.275 167.809 23.9 165.059 23.9C162.309 23.9 161.159 22.275 161.159 19.675V8H154.184V19.85C154.184 26.625 157.834 29.7 165.059 29.7ZM200.28 17.4H188.98V21H193.605C192.905 23.45 190.28 23.725 189.255 23.725C186.405 23.725 184.18 21.675 184.18 18.5C184.18 15.325 186.355 13.275 189.455 13.275C191.505 13.275 192.88 14.3 193.305 15.35H200.18C199.355 9.7 194.28 7.3 189.305 7.3C182.005 7.3 177.305 11.775 177.305 18.5C177.305 25.225 182.255 29.7 188.705 29.7C192.405 29.7 195.03 28.225 196.48 26.225L196.58 29H200.28V17.4ZM213.018 29.7C220.243 29.7 223.893 26.625 223.893 19.8V8H216.968V19.675C216.968 22.275 215.768 23.9 213.018 23.9C210.268 23.9 209.118 22.275 209.118 19.675V8H202.143V19.85C202.143 26.625 205.793 29.7 213.018 29.7ZM235.639 29.7C242.839 29.725 246.389 27.45 246.389 22.875C246.389 17.125 240.664 17 236.489 16.3L234.264 15.925C232.664 15.675 232.289 14.95 232.289 14.35C232.289 13.4 233.239 12.7 235.539 12.7C238.189 12.7 239.364 13.575 239.614 14.975H245.789C245.914 8.975 241.714 7.3 235.689 7.3C229.014 7.3 225.639 9.85 225.639 14C225.639 19.375 230.414 19.85 234.389 20.5L237.089 20.925C239.139 21.225 239.514 21.925 239.514 22.6C239.514 23.575 238.289 24.325 235.639 24.3C232.639 24.275 231.439 23.4 231.364 21.975H225.139C224.964 27.425 228.389 29.675 235.639 29.7ZM268.837 8H246.813V13.775H254.363V29H261.287V13.775H268.837V8ZM101.775 44.275C101.775 39.775 98.275 37.45 92.275 37.45C86 37.45 82.825 40.15 82.825 45.225H89.575C89.525 43.225 91.35 42.95 92.575 42.95C94.425 42.95 95.025 43.675 95.025 44.625C95.025 47.9 82.625 46.9 82.625 55.875V59H101.7V53.75H90.725C92.625 50.275 101.775 51.5 101.775 44.275ZM113.566 59.55C120.366 59.55 124.241 55.675 124.241 48.5C124.241 41.325 120.366 37.45 113.566 37.45C106.766 37.45 102.891 41.325 102.891 48.5C102.891 55.675 106.766 59.55 113.566 59.55ZM113.566 53.725C111.016 53.725 109.716 51.9 109.716 48.5C109.716 45.1 111.016 43.275 113.566 43.275C116.116 43.275 117.416 45.1 117.416 48.5C117.416 51.9 116.116 53.725 113.566 53.725ZM144.519 44.275C144.519 39.775 141.019 37.45 135.019 37.45C128.744 37.45 125.569 40.15 125.569 45.225H132.319C132.269 43.225 134.094 42.95 135.319 42.95C137.169 42.95 137.769 43.675 137.769 44.625C137.769 47.9 125.369 46.9 125.369 55.875V59H144.444V53.75H133.469C135.369 50.275 144.519 51.5 144.519 44.275ZM158.81 53.75V38H151.885C150.135 39.65 148.36 40.25 146.635 40.25V46.05C148.36 46.05 150.385 45.875 151.885 44.625V53.75H146.135V59H163.26V53.75H158.81Z" fill="url(#paint0_linear)"/>
<defs>
<linearGradient id="paint0_linear" x1="237" y1="0" x2="237" y2="60" gradientUnits="userSpaceOnUse">
<stop offset="0.494792" stop-color="#1A73FA"/>
<stop offset="1"/>
</linearGradient>
</defs>
</svg>
