<svg width="391" height="60" viewBox="0 0 391 60" fill="none" xmlns="http://www.w3.org/2000/svg">
<path d="M94.675 23.75V8H87.75C86 9.65 84.225 10.25 82.5 10.25V16.05C84.225 16.05 86.25 15.875 87.75 14.625V23.75H82V29H99.125V23.75H94.675ZM110.456 29.55C116.806 29.55 120.681 27.2 120.681 23.2C120.681 20.5 119.106 18.8 117.006 18.175V17.825C118.656 17.025 120.006 15.75 120.006 13.375C120.006 9.8 116.881 7.45 110.656 7.45C104.531 7.45 101.181 9.8 101.231 15.1H107.381C107.381 13.475 108.631 12.9 110.606 12.9C112.431 12.9 113.756 13.4 113.756 14.575C113.756 15.15 113.431 16.4 110.206 16.4H109.056V20.3H110.206C113.481 20.3 113.831 21.775 113.831 22.35C113.831 23.475 112.556 24.1 110.306 24.1C108.331 24.1 107.056 23.675 106.956 21.975H100.756C100.706 27.325 103.881 29.55 110.456 29.55ZM145.941 29H153.091L145.366 8H135.666L127.941 29H135.091L136.016 26.225H145.016L145.941 29ZM137.716 21.1L139.916 14.5H141.116L143.316 21.1H137.716ZM163.355 29.7C170.58 29.7 174.23 26.625 174.23 19.8V8H167.305V19.675C167.305 22.275 166.105 23.9 163.355 23.9C160.605 23.9 159.455 22.275 159.455 19.675V8H152.48V19.85C152.48 26.625 156.13 29.7 163.355 29.7ZM198.577 17.4H187.277V21H191.902C191.202 23.45 188.577 23.725 187.552 23.725C184.702 23.725 182.477 21.675 182.477 18.5C182.477 15.325 184.652 13.275 187.752 13.275C189.802 13.275 191.177 14.3 191.602 15.35H198.477C197.652 9.7 192.577 7.3 187.602 7.3C180.302 7.3 175.602 11.775 175.602 18.5C175.602 25.225 180.552 29.7 187.002 29.7C190.702 29.7 193.327 28.225 194.777 26.225L194.877 29H198.577V17.4ZM211.314 29.7C218.539 29.7 222.189 26.625 222.189 19.8V8H215.264V19.675C215.264 22.275 214.064 23.9 211.314 23.9C208.564 23.9 207.414 22.275 207.414 19.675V8H200.439V19.85C200.439 26.625 204.089 29.7 211.314 29.7ZM233.936 29.7C241.136 29.725 244.686 27.45 244.686 22.875C244.686 17.125 238.961 17 234.786 16.3L232.561 15.925C230.961 15.675 230.586 14.95 230.586 14.35C230.586 13.4 231.536 12.7 233.836 12.7C236.486 12.7 237.661 13.575 237.911 14.975H244.086C244.211 8.975 240.011 7.3 233.986 7.3C227.311 7.3 223.936 9.85 223.936 14C223.936 19.375 228.711 19.85 232.686 20.5L235.386 20.925C237.436 21.225 237.811 21.925 237.811 22.6C237.811 23.575 236.586 24.325 233.936 24.3C230.936 24.275 229.736 23.4 229.661 21.975H223.436C223.261 27.425 226.686 29.675 233.936 29.7ZM267.134 8H245.109V13.775H252.659V29H259.584V13.775H267.134V8ZM100.775 44.275C100.775 39.775 97.275 37.45 91.275 37.45C85 37.45 81.825 40.15 81.825 45.225H88.575C88.525 43.225 90.35 42.95 91.575 42.95C93.425 42.95 94.025 43.675 94.025 44.625C94.025 47.9 81.625 46.9 81.625 55.875V59H100.7V53.75H89.725C91.625 50.275 100.775 51.5 100.775 44.275ZM112.566 59.55C119.366 59.55 123.241 55.675 123.241 48.5C123.241 41.325 119.366 37.45 112.566 37.45C105.766 37.45 101.891 41.325 101.891 48.5C101.891 55.675 105.766 59.55 112.566 59.55ZM112.566 53.725C110.016 53.725 108.716 51.9 108.716 48.5C108.716 45.1 110.016 43.275 112.566 43.275C115.116 43.275 116.416 45.1 116.416 48.5C116.416 51.9 115.116 53.725 112.566 53.725ZM143.519 44.275C143.519 39.775 140.019 37.45 134.019 37.45C127.744 37.45 124.569 40.15 124.569 45.225H131.319C131.269 43.225 133.094 42.95 134.319 42.95C136.169 42.95 136.769 43.675 136.769 44.625C136.769 47.9 124.369 46.9 124.369 55.875V59H143.444V53.75H132.469C134.369 50.275 143.519 51.5 143.519 44.275ZM157.81 53.75V38H150.885C149.135 39.65 147.36 40.25 145.635 40.25V46.05C147.36 46.05 149.385 45.875 150.885 44.625V53.75H145.135V59H162.26V53.75H157.81Z" fill="url(#paint0_linear)"/>
<circle cx="10.5" cy="19.5" r="10" fill="black" stroke="white"/>
<defs>
<linearGradient id="paint0_linear" x1="236" y1="0" x2="236" y2="60" gradientUnits="userSpaceOnUse">
<stop offset="0.494792" stop-color="#1A73FA"/>
<stop offset="1"/>
</linearGradient>
</defs>
</svg>
