<svg width="392" height="60" viewBox="0 0 392 60" fill="none" xmlns="http://www.w3.org/2000/svg">
<path d="M95.675 23.75V8H88.75C87 9.65 85.225 10.25 83.5 10.25V16.05C85.225 16.05 87.25 15.875 88.75 14.625V23.75H83V29H100.125V23.75H95.675ZM111.563 29.55C119.238 29.55 121.663 26.325 121.663 22.9C121.663 20.475 120.438 18.675 118.063 17.45V17.05C119.313 16.275 120.188 14.775 120.188 13.15C120.188 9.9 117.463 7.45 111.563 7.45C105.663 7.45 102.988 9.9 102.988 13.15C102.988 14.775 103.813 16.275 105.063 17.05V17.45C102.688 18.675 101.463 20.475 101.463 22.9C101.463 26.325 103.888 29.55 111.563 29.55ZM111.563 15.75C109.788 15.75 109.038 15.05 109.038 13.975C109.038 12.8 109.938 12.15 111.563 12.15C113.188 12.15 114.088 12.8 114.088 13.975C114.088 15.05 113.338 15.75 111.563 15.75ZM111.563 24.35C109.013 24.35 108.188 23.3 108.188 22.025C108.188 20.775 109.038 19.7 111.563 19.7C114.088 19.7 114.938 20.775 114.938 22.025C114.938 23.3 114.113 24.35 111.563 24.35ZM146.912 29H154.062L146.337 8H136.637L128.912 29H136.062L136.987 26.225H145.987L146.912 29ZM138.687 21.1L140.887 14.5H142.087L144.287 21.1H138.687ZM164.326 29.7C171.551 29.7 175.201 26.625 175.201 19.8V8H168.276V19.675C168.276 22.275 167.076 23.9 164.326 23.9C161.576 23.9 160.426 22.275 160.426 19.675V8H153.451V19.85C153.451 26.625 157.101 29.7 164.326 29.7ZM199.547 17.4H188.247V21H192.872C192.172 23.45 189.547 23.725 188.522 23.725C185.672 23.725 183.447 21.675 183.447 18.5C183.447 15.325 185.622 13.275 188.722 13.275C190.772 13.275 192.147 14.3 192.572 15.35H199.447C198.622 9.7 193.547 7.3 188.572 7.3C181.272 7.3 176.572 11.775 176.572 18.5C176.572 25.225 181.522 29.7 187.972 29.7C191.672 29.7 194.297 28.225 195.747 26.225L195.847 29H199.547V17.4ZM212.285 29.7C219.51 29.7 223.16 26.625 223.16 19.8V8H216.235V19.675C216.235 22.275 215.035 23.9 212.285 23.9C209.535 23.9 208.385 22.275 208.385 19.675V8H201.41V19.85C201.41 26.625 205.06 29.7 212.285 29.7ZM234.906 29.7C242.106 29.725 245.656 27.45 245.656 22.875C245.656 17.125 239.931 17 235.756 16.3L233.531 15.925C231.931 15.675 231.556 14.95 231.556 14.35C231.556 13.4 232.506 12.7 234.806 12.7C237.456 12.7 238.631 13.575 238.881 14.975H245.056C245.181 8.975 240.981 7.3 234.956 7.3C228.281 7.3 224.906 9.85 224.906 14C224.906 19.375 229.681 19.85 233.656 20.5L236.356 20.925C238.406 21.225 238.781 21.925 238.781 22.6C238.781 23.575 237.556 24.325 234.906 24.3C231.906 24.275 230.706 23.4 230.631 21.975H224.406C224.231 27.425 227.656 29.675 234.906 29.7ZM268.105 8H246.08V13.775H253.63V29H260.555V13.775H268.105V8ZM101.775 44.275C101.775 39.775 98.275 37.45 92.275 37.45C86 37.45 82.825 40.15 82.825 45.225H89.575C89.525 43.225 91.35 42.95 92.575 42.95C94.425 42.95 95.025 43.675 95.025 44.625C95.025 47.9 82.625 46.9 82.625 55.875V59H101.7V53.75H90.725C92.625 50.275 101.775 51.5 101.775 44.275ZM113.566 59.55C120.366 59.55 124.241 55.675 124.241 48.5C124.241 41.325 120.366 37.45 113.566 37.45C106.766 37.45 102.891 41.325 102.891 48.5C102.891 55.675 106.766 59.55 113.566 59.55ZM113.566 53.725C111.016 53.725 109.716 51.9 109.716 48.5C109.716 45.1 111.016 43.275 113.566 43.275C116.116 43.275 117.416 45.1 117.416 48.5C117.416 51.9 116.116 53.725 113.566 53.725ZM144.519 44.275C144.519 39.775 141.019 37.45 135.019 37.45C128.744 37.45 125.569 40.15 125.569 45.225H132.319C132.269 43.225 134.094 42.95 135.319 42.95C137.169 42.95 137.769 43.675 137.769 44.625C137.769 47.9 125.369 46.9 125.369 55.875V59H144.444V53.75H133.469C135.369 50.275 144.519 51.5 144.519 44.275ZM158.81 53.75V38H151.885C150.135 39.65 148.36 40.25 146.635 40.25V46.05C148.36 46.05 150.385 45.875 151.885 44.625V53.75H146.135V59H163.26V53.75H158.81Z" fill="url(#paint0_linear)"/>
<circle cx="10.5" cy="19.5" r="10" fill="black" stroke="white"/>
<defs>
<linearGradient id="paint0_linear" x1="237" y1="0" x2="237" y2="60" gradientUnits="userSpaceOnUse">
<stop offset="0.494792" stop-color="#1A73FA"/>
<stop offset="1"/>
</linearGradient>
</defs>
</svg>
