<svg width="385" height="60" viewBox="0 0 385 60" fill="none" xmlns="http://www.w3.org/2000/svg">
<path d="M190.582 29H209.507V23.45H197.507V20.775H209.057V16.225H197.507V13.55H209.507V8H190.582V29ZM211.266 29H218.016V17.65H218.641L225.791 29H233.566V8H226.816V19.35H226.191L219.216 8H211.266V29ZM245.868 8H235.318V29H245.868C254.418 29 257.418 24.525 257.418 18.5C257.418 12.45 254.418 8 245.868 8ZM245.868 23.2H242.268V13.8H245.868C248.568 13.8 250.468 15.125 250.468 18.5C250.468 21.85 248.568 23.2 245.868 23.2ZM276.961 29.7C284.186 29.7 288.861 25.225 288.861 18.5C288.861 11.775 284.186 7.3 276.961 7.3C269.736 7.3 265.061 11.775 265.061 18.5C265.061 25.225 269.736 29.7 276.961 29.7ZM276.961 23.725C274.211 23.725 271.936 21.825 271.936 18.5C271.936 15.175 274.211 13.275 276.961 13.275C279.711 13.275 281.986 15.175 281.986 18.5C281.986 21.825 279.711 23.725 276.961 23.725ZM290.25 29H297.175V21.625H308.6V16.625H297.175V13.775H309.125V8H290.25V29ZM118.346 59.7C125.546 59.725 129.096 57.45 129.096 52.875C129.096 47.125 123.371 47 119.196 46.3L116.971 45.925C115.371 45.675 114.996 44.95 114.996 44.35C114.996 43.4 115.946 42.7 118.246 42.7C120.896 42.7 122.071 43.575 122.321 44.975H128.496C128.621 38.975 124.421 37.3 118.396 37.3C111.721 37.3 108.346 39.85 108.346 44C108.346 49.375 113.121 49.85 117.096 50.5L119.796 50.925C121.846 51.225 122.221 51.925 122.221 52.6C122.221 53.575 120.996 54.325 118.346 54.3C115.346 54.275 114.146 53.4 114.071 51.975H107.846C107.671 57.425 111.096 59.675 118.346 59.7ZM130.406 59H149.331V53.45H137.331V50.775H148.881V46.225H137.331V43.55H149.331V38H130.406V59ZM151.09 59H158.015V54.4H163.04C168.74 54.4 172.14 51.85 172.14 46.2C172.14 40.55 168.74 38 163.015 38H151.09V59ZM158.015 48.65V43.75H162.44C164.09 43.75 165.165 44.575 165.165 46.2C165.165 47.825 164.09 48.65 162.415 48.65H158.015ZM195.05 38H173.025V43.775H180.575V59H187.5V43.775H195.05V38ZM196.676 59H215.601V53.45H203.601V50.775H215.151V46.225H203.601V43.55H215.601V38H196.676V59ZM217.359 59H223.959V49.7H224.509L227.184 59H232.334L235.009 49.7H235.559V59H242.159V38H233.434L230.009 49.975H229.509L226.084 38H217.359V59ZM262.252 48.175V47.775C263.727 46.975 264.952 45.95 264.952 43.575C264.952 40.8 263.252 38 256.902 38H243.902V59H256.552C263.127 59 265.502 56.45 265.502 53.075C265.502 50.675 264.277 49.2 262.252 48.175ZM256.177 43.3C257.802 43.3 258.327 44.1 258.327 44.9C258.327 45.65 257.802 46.45 256.177 46.45H250.827V43.3H256.177ZM256.327 53.7H250.827V50.225H256.327C257.952 50.225 258.502 51.125 258.502 51.925C258.502 52.7 257.952 53.7 256.327 53.7ZM266.988 59H285.913V53.45H273.913V50.775H285.463V46.225H273.913V43.55H285.913V38H266.988V59ZM309.497 59L305.747 52.1C307.522 50.85 308.797 48.85 308.797 46.025C308.797 40.5 305.522 38 299.697 38H287.672V59H294.597V53.575H299.847L302.697 59H309.497ZM294.597 43.75H299.222C300.972 43.75 301.872 44.6 301.872 46.075C301.872 47.55 300.972 48.4 299.222 48.4H294.597V43.75Z" fill="url(#paint0_linear)"/>
<defs>
<linearGradient id="paint0_linear" x1="155" y1="0" x2="155" y2="60" gradientUnits="userSpaceOnUse">
<stop offset="0.494792" stop-color="#1A73FA"/>
<stop offset="1"/>
</linearGradient>
</defs>
</svg>
