<svg width="385" height="60" viewBox="0 0 385 60" fill="none" xmlns="http://www.w3.org/2000/svg">
<path d="M89.007 23.75V8H82.082C80.332 9.65 78.557 10.25 76.832 10.25V16.05C78.557 16.05 80.582 15.875 82.082 14.625V23.75H76.332V29H93.457V23.75H89.007ZM111.842 29.7C119.042 29.725 122.592 27.45 122.592 22.875C122.592 17.125 116.867 17 112.692 16.3L110.467 15.925C108.867 15.675 108.492 14.95 108.492 14.35C108.492 13.4 109.442 12.7 111.742 12.7C114.392 12.7 115.567 13.575 115.817 14.975H121.992C122.117 8.975 117.917 7.3 111.892 7.3C105.217 7.3 101.842 9.85 101.842 14C101.842 19.375 106.617 19.85 110.592 20.5L113.292 20.925C115.342 21.225 115.717 21.925 115.717 22.6C115.717 23.575 114.492 24.325 111.842 24.3C108.842 24.275 107.642 23.4 107.567 21.975H101.342C101.167 27.425 104.592 29.675 111.842 29.7ZM123.902 29H142.827V23.45H130.827V20.775H142.377V16.225H130.827V13.55H142.827V8H123.902V29ZM144.586 29H151.511V24.4H156.536C162.236 24.4 165.636 21.85 165.636 16.2C165.636 10.55 162.236 8 156.511 8H144.586V29ZM151.511 18.65V13.75H155.936C157.586 13.75 158.661 14.575 158.661 16.2C158.661 17.825 157.586 18.65 155.911 18.65H151.511ZM188.546 8H166.521V13.775H174.071V29H180.996V13.775H188.546V8ZM190.172 29H209.097V23.45H197.097V20.775H208.647V16.225H197.097V13.55H209.097V8H190.172V29ZM210.855 29H217.455V19.7H218.005L220.68 29H225.83L228.505 19.7H229.055V29H235.655V8H226.93L223.505 19.975H223.005L219.58 8H210.855V29ZM255.748 18.175V17.775C257.223 16.975 258.448 15.95 258.448 13.575C258.448 10.8 256.748 8 250.398 8H237.398V29H250.048C256.623 29 258.998 26.45 258.998 23.075C258.998 20.675 257.773 19.2 255.748 18.175ZM249.673 13.3C251.298 13.3 251.823 14.1 251.823 14.9C251.823 15.65 251.298 16.45 249.673 16.45H244.323V13.3H249.673ZM249.823 23.7H244.323V20.225H249.823C251.448 20.225 251.998 21.125 251.998 21.925C251.998 22.7 251.448 23.7 249.823 23.7ZM260.484 29H279.409V23.45H267.409V20.775H278.959V16.225H267.409V13.55H279.409V8H260.484V29ZM302.993 29L299.243 22.1C301.018 20.85 302.293 18.85 302.293 16.025C302.293 10.5 299.018 8 293.193 8H281.168V29H288.093V23.575H293.343L296.193 29H302.993ZM288.093 13.75H292.718C294.468 13.75 295.368 14.6 295.368 16.075C295.368 17.55 294.468 18.4 292.718 18.4H288.093V13.75ZM247.509 44.275C247.509 39.775 244.009 37.45 238.009 37.45C231.734 37.45 228.559 40.15 228.559 45.225H235.309C235.259 43.225 237.084 42.95 238.309 42.95C240.159 42.95 240.759 43.675 240.759 44.625C240.759 47.9 228.359 46.9 228.359 55.875V59H247.434V53.75H236.459C238.359 50.275 247.509 51.5 247.509 44.275ZM259.3 59.55C266.1 59.55 269.975 55.675 269.975 48.5C269.975 41.325 266.1 37.45 259.3 37.45C252.5 37.45 248.625 41.325 248.625 48.5C248.625 55.675 252.5 59.55 259.3 59.55ZM259.3 53.725C256.75 53.725 255.45 51.9 255.45 48.5C255.45 45.1 256.75 43.275 259.3 43.275C261.85 43.275 263.15 45.1 263.15 48.5C263.15 51.9 261.85 53.725 259.3 53.725ZM290.254 44.275C290.254 39.775 286.754 37.45 280.754 37.45C274.479 37.45 271.304 40.15 271.304 45.225H278.054C278.004 43.225 279.829 42.95 281.054 42.95C282.904 42.95 283.504 43.675 283.504 44.625C283.504 47.9 271.104 46.9 271.104 55.875V59H290.179V53.75H279.204C281.104 50.275 290.254 51.5 290.254 44.275ZM304.544 53.75V38H297.619C295.869 39.65 294.094 40.25 292.369 40.25V46.05C294.094 46.05 296.119 45.875 297.619 44.625V53.75H291.869V59H308.994V53.75H304.544Z" fill="url(#paint0_linear)"/>
<defs>
<linearGradient id="paint0_linear" x1="155" y1="0" x2="155" y2="60" gradientUnits="userSpaceOnUse">
<stop offset="0.494792" stop-color="#1A73FA"/>
<stop offset="1"/>
</linearGradient>
</defs>
</svg>
