<svg width="286" height="49" viewBox="0 0 286 49" fill="none" xmlns="http://www.w3.org/2000/svg">
<path d="M0.133333 47H11.6533V22.4133H12.6667L21.0933 47H30.32L38.7467 22.4133H39.76V47H51.28V2.2H35.9733L26.16 31.64H25.2533L15.44 2.2H0.133333V47ZM92.5308 47H104.958L87.8908 2.2H71.0375L53.9708 47H66.3975L68.9042 40.0133H90.0242L92.5308 47ZM72.1042 31L78.3975 13.5067H80.5842L86.8242 31H72.1042ZM126.203 48.4933C140.603 48.5467 148.017 43.5333 148.017 34.3067C148.017 23.1067 136.923 22.04 128.283 20.4933L123.43 19.64C119.27 18.9467 117.563 17.2933 117.563 15C117.563 12.0667 120.337 10.1467 126.043 10.1467C132.39 10.1467 135.323 12.6 135.963 16.28H146.737C146.737 4.6 138.363 0.706665 126.257 0.706665C113.19 0.706665 105.99 5.88 105.99 14.4667C105.99 24.76 115.003 26.6267 123.537 28.0667L129.137 29.0267C134.15 29.8267 136.07 31.3733 136.07 33.9333C136.07 36.9733 132.71 39.0533 126.203 39C119.163 39 115.963 36.5467 115.697 32.76H104.817C104.657 43.64 111.91 48.4933 126.203 48.4933ZM194.165 2.2H148.992V12.2267H165.578V47H177.578V12.2267H194.165V2.2ZM198.196 47H236.809V37.24H210.249V28.76H235.849V20.3867H210.249V11.96H236.809V2.2H198.196V47ZM285.284 47L276.804 31.8C281.124 29.24 284.058 24.76 284.058 18.5733C284.058 7.69333 277.444 2.2 265.338 2.2H241.071V47H253.124V34.2533H266.511L273.391 47H285.284ZM253.124 12.2267H264.591C269.444 12.2267 272.057 14.4667 272.057 18.68C272.057 22.8933 269.444 25.1333 264.591 25.1333H253.124V12.2267Z" fill="url(#paint0_linear)"/>
<defs>
<linearGradient id="paint0_linear" x1="-2.00001" y1="-12.2499" x2="308.983" y2="31.9746" gradientUnits="userSpaceOnUse">
<stop offset="0.591329" stop-color="#1A73FA"/>
<stop offset="1" stop-color="#1A73FA" stop-opacity="0"/>
</linearGradient>
</defs>
</svg>
