<svg width="133" height="49" viewBox="0 0 133 49" fill="none" xmlns="http://www.w3.org/2000/svg">
<path d="M25.24 48.4933C40.12 48.4933 50.0933 38.7333 50.0933 24.6C50.0933 10.4133 40.12 0.706665 25.24 0.706665C10.3067 0.706665 0.333333 10.4133 0.333333 24.6C0.333333 38.7333 10.3067 48.4933 25.24 48.4933ZM25.24 38.0933C17.9333 38.0933 12.28 32.8133 12.28 24.6C12.28 16.3333 17.9333 11.1067 25.24 11.1067C32.4933 11.1067 38.2 16.3333 38.2 24.6C38.2 32.8133 32.4933 38.0933 25.24 38.0933ZM58.0792 47.8533C61.4925 47.8533 64.3192 45.0267 64.3192 41.6667C64.3192 38.3067 61.4925 35.5333 58.0792 35.5333C54.6658 35.5333 51.8392 38.3067 51.8392 41.6667C51.8392 45.0267 54.6658 47.8533 58.0792 47.8533ZM115.593 22.9467H91.9658V30.3067H103.913C102.419 36.6 96.2858 38.0933 92.6058 38.0933C85.2458 38.0933 79.5925 32.6 79.5925 24.6C79.5925 16.6 85.1392 11.1067 92.9258 11.1067C97.9392 11.1067 101.673 13.5067 103.112 16.9733H115.059C112.873 5.45333 102.739 0.706665 92.7125 0.706665C77.6725 0.706665 67.6458 10.4133 67.6458 24.6C67.6458 38.7333 78.0992 48.4933 91.6992 48.4933C99.6458 48.4933 105.246 45.24 108.339 40.7067L108.499 47H115.593V22.9467ZM126.267 47.8533C129.68 47.8533 132.507 45.0267 132.507 41.6667C132.507 38.3067 129.68 35.5333 126.267 35.5333C122.853 35.5333 120.027 38.3067 120.027 41.6667C120.027 45.0267 122.853 47.8533 126.267 47.8533Z" fill="url(#paint0_linear)"/>
<defs>
<linearGradient id="paint0_linear" x1="43" y1="-46.5" x2="258.665" y2="-14.2079" gradientUnits="userSpaceOnUse">
<stop stop-color="#1A73FA"/>
<stop offset="1" stop-color="#1A73FA" stop-opacity="0"/>
</linearGradient>
</defs>
</svg>
