<svg width="257" height="37" viewBox="0 0 257 37" fill="none" xmlns="http://www.w3.org/2000/svg">
<path d="M33.76 35L27.4 23.6C30.64 21.68 32.84 18.32 32.84 13.68C32.84 5.52 27.88 1.4 18.8 1.4H0.6V35H9.64V25.44H19.68L24.84 35H33.76ZM9.64 8.92H18.24C21.88 8.92 23.84 10.6 23.84 13.76C23.84 16.92 21.88 18.6 18.24 18.6H9.64V8.92ZM36.225 35H65.185V27.68H45.265V21.32H64.465V15.04H45.265V8.72H65.185V1.4H36.225V35ZM74.8613 35H87.0613L91.5412 15.48H92.3413L96.8212 35H109.021L116.181 1.4H107.061L102.301 25.36H101.501L95.6213 1.4H88.2613L82.3813 25.36H81.5813L76.8213 1.4H67.7013L74.8613 35ZM141.101 35H150.421L137.621 1.4H124.981L112.181 35H121.501L123.381 29.76H139.221L141.101 35ZM125.781 23L130.501 9.88H132.141L136.821 23H125.781ZM185.588 35L179.228 23.6C182.468 21.68 184.668 18.32 184.668 13.68C184.668 5.52 179.708 1.4 170.628 1.4H152.428V35H161.468V25.44H171.508L176.668 35H185.588ZM161.468 8.92H170.068C173.708 8.92 175.668 10.6 175.668 13.76C175.668 16.92 173.708 18.6 170.068 18.6H161.468V8.92ZM203.973 1.4H188.053V35H203.973C217.253 35 222.133 27.76 222.133 18.2C222.133 8.6 217.253 1.4 203.973 1.4ZM203.973 27.4H197.093L197.133 8.96H203.973C209.773 8.96 213.093 12.08 213.093 18.2C213.093 24.28 209.773 27.4 203.973 27.4ZM240.184 36.12C250.984 36.16 256.544 32.4 256.544 25.48C256.544 17.08 248.224 16.28 241.744 15.12L238.104 14.48C234.984 13.96 233.704 12.72 233.704 11C233.704 8.8 235.784 7.36 240.064 7.36C244.824 7.36 247.024 9.2 247.504 11.96H255.584C255.584 3.2 249.304 0.279999 240.224 0.279999C230.424 0.279999 225.024 4.16 225.024 10.6C225.024 18.32 231.784 19.72 238.184 20.8L242.384 21.52C246.144 22.12 247.584 23.28 247.584 25.2C247.584 27.48 245.064 29.04 240.184 29C234.904 29 232.504 27.16 232.304 24.32H224.144C224.024 32.48 229.464 36.12 240.184 36.12Z" fill="url(#paint0_linear)"/>
<defs>
<linearGradient id="paint0_linear" x1="86.2662" y1="-17" x2="275.775" y2="-3.3369" gradientUnits="userSpaceOnUse">
<stop offset="0.515928" stop-color="#1A73FA"/>
<stop offset="1" stop-color="#1A73FA" stop-opacity="0"/>
</linearGradient>
</defs>
</svg>
