<svg width="130" height="148" viewBox="0 0 130 148" fill="none" xmlns="http://www.w3.org/2000/svg">
<path d="M130 73.5598V40.5007C130 40.4376 129.977 40.3788 129.977 40.3157C129.963 39.7605 129.902 39.2078 129.759 38.6735C129.754 38.6574 129.745 38.6431 129.74 38.627C129.6 38.1165 129.384 37.6292 129.131 37.1604C129.056 37.0223 128.972 36.8961 128.887 36.7647C128.667 36.4159 128.417 36.0881 128.133 35.7787C128.03 35.6639 127.934 35.549 127.822 35.4413C127.421 35.057 126.988 34.7035 126.486 34.4131L68.5147 0.941609C66.3411 -0.31387 63.6636 -0.31387 61.4877 0.941609L3.51344 34.4155C1.33979 35.671 0 37.9898 0 40.5007V123.767C0 126.278 1.33979 128.597 3.51344 129.852L32.1434 146.382C32.2253 146.429 32.3167 146.445 32.401 146.49C32.7758 146.686 33.1693 146.848 33.5792 146.977C33.7291 147.024 33.8744 147.08 34.0243 147.115C34.5279 147.235 35.0455 147.312 35.5843 147.317C35.6053 147.317 35.6264 147.326 35.6475 147.326C35.6522 147.326 35.6592 147.324 35.6639 147.324C36.2284 147.324 36.7671 147.239 37.2941 147.113C37.4417 147.078 37.5799 147.024 37.7251 146.979C38.1186 146.858 38.4933 146.708 38.8541 146.52C39.0017 146.445 39.1469 146.37 39.2898 146.284C39.7043 146.031 40.0932 145.745 40.4445 145.415C40.496 145.368 40.5523 145.333 40.6014 145.283C40.9996 144.888 41.3322 144.436 41.6273 143.955C41.6601 143.902 41.7093 143.864 41.7398 143.81C41.8077 143.693 41.8429 143.567 41.9037 143.45C42.0185 143.222 42.1263 142.995 42.2153 142.756C42.2949 142.543 42.3581 142.327 42.4167 142.11C42.4753 141.892 42.5292 141.674 42.5666 141.449C42.6088 141.196 42.6299 140.946 42.6439 140.693C42.6509 140.559 42.6837 140.435 42.6837 140.299V61.0871L93.631 31.6726L108.919 40.5007L61.4877 67.8869C59.314 69.1424 57.9741 71.4612 57.9741 73.9721V107.032C57.9741 107.095 57.9978 107.153 57.9978 107.217C58.0116 107.772 58.0728 108.325 58.2156 108.858C58.2204 108.875 58.2294 108.889 58.2341 108.905C58.375 109.416 58.5905 109.903 58.8434 110.372C58.9183 110.51 59.0028 110.636 59.0868 110.767C59.3069 111.116 59.5575 111.444 59.8412 111.754C59.9442 111.869 60.04 111.983 60.1525 112.091C60.5529 112.475 60.9866 112.829 61.4877 113.119L119.46 146.591C120.546 147.218 121.76 147.532 122.973 147.532C124.187 147.532 125.4 147.218 126.486 146.591C128.66 145.335 130 143.016 130 140.505V108.146C130 105.207 128.417 102.469 125.878 101.005L107.685 90.5016L126.489 79.6455C128.662 78.39 130 76.0707 130 73.5598ZM28.63 128.126L14.0538 119.71V77.6166L28.63 69.2007V128.126ZM14.0538 61.3893V44.5576L65.0012 15.143L79.5773 23.5589L14.0538 61.3893ZM115.946 111.5V128.332L79.0549 107.034L93.631 98.6181L115.946 111.5ZM115.946 69.503L72.0283 94.8607V78.0289L115.946 52.6712V69.503Z" fill="black"/>
</svg>
